<?xml version="1.0" standalone="no"?>
<!DOCTYPE svg PUBLIC "-//W3C//DTD SVG 20010904//EN"
 "http://www.w3.org/TR/2001/REC-SVG-20010904/DTD/svg10.dtd">
<svg version="1.0" xmlns="http://www.w3.org/2000/svg"
 width="353.000000pt" height="352.000000pt" viewBox="0 0 353.000000 352.000000"
 preserveAspectRatio="xMidYMid meet">

<g transform="translate(0.000000,352.000000) scale(0.100000,-0.100000)"
fill="#000000" stroke="none">
<path d="M2313 2753 c-26 -26 -69 -253 -54 -282 12 -22 27 -26 50 -12 15 10
48 139 57 227 6 56 5 63 -14 73 -17 9 -25 8 -39 -6z"/>
<path d="M911 2558 c-10 -27 -15 -18 68 -146 67 -104 96 -127 126 -102 8 7 15
18 15 24 0 7 -35 63 -77 126 -83 122 -114 145 -132 98z"/>
<path d="M2712 2542 c-15 -16 -49 -70 -75 -120 -36 -68 -46 -97 -41 -116 16
-65 50 -39 123 94 63 113 70 137 49 158 -18 18 -27 15 -56 -16z"/>
<path d="M1763 2358 c-61 -33 -1082 -892 -1131 -950 -11 -14 12 -34 171 -152
102 -75 188 -136 191 -136 4 0 282 241 617 536 l611 536 -170 89 c-196 102
-228 111 -289 77z"/>
<path d="M518 2329 c-44 -25 -7 -67 144 -171 44 -29 64 -37 83 -32 60 15 44
40 -87 134 -61 44 -113 80 -117 80 -3 0 -14 -5 -23 -11z"/>
<path d="M2919 2163 c-92 -69 -104 -82 -104 -108 0 -56 37 -45 158 46 105 79
121 101 95 127 -22 22 -45 12 -149 -65z"/>
<path d="M2234 2063 c-187 -160 -1125 -996 -1147 -1023 -29 -34 -29 -32 2
-245 14 -95 19 -110 35 -110 10 0 309 266 701 625 l683 625 -16 28 c-10 16
-43 58 -75 93 -76 83 -92 84 -183 7z"/>
<path d="M312 1918 c-36 -36 -1 -58 147 -94 120 -29 143 -27 149 13 4 29 -12
38 -129 67 -119 29 -149 32 -167 14z"/>
<path d="M2494 1789 c-23 -9 -291 -265 -284 -271 9 -8 456 -128 477 -128 11 0
29 10 40 23 27 31 198 267 198 275 0 12 -411 109 -431 101z"/>
<path d="M2895 1474 c-54 -75 -97 -146 -97 -158 0 -22 40 -240 48 -265 5 -14
195 241 236 316 l22 42 -49 96 c-28 53 -53 99 -57 101 -3 2 -50 -57 -103 -132z"/>
<path d="M2005 1333 c-89 -84 -111 -109 -100 -116 36 -20 313 -112 455 -151
174 -48 377 -92 386 -84 9 10 -44 281 -58 293 -12 11 -533 165 -557 165 -6 0
-63 -48 -126 -107z"/>
<path d="M556 1248 c-11 -107 -7 -164 12 -186 32 -39 417 -343 420 -332 5 13
-28 272 -37 286 -5 9 -342 266 -377 287 -8 4 -13 -14 -18 -55z"/>
</g>
</svg>
