<?xml version="1.0" standalone="no"?>
<!DOCTYPE svg PUBLIC "-//W3C//DTD SVG 20010904//EN"
 "http://www.w3.org/TR/2001/REC-SVG-20010904/DTD/svg10.dtd">
<svg version="1.0" xmlns="http://www.w3.org/2000/svg"
 width="831.000000pt" height="300.000000pt" viewBox="0 0 831.000000 300.000000"
 preserveAspectRatio="xMidYMid meet">

<g transform="translate(0.000000,300.000000) scale(0.100000,-0.100000)"
fill="#000000" stroke="none">
<path d="M4470 2805 c-14 -38 -18 -119 -5 -123 16 -5 41 126 27 140 -8 8 -14
4 -22 -17z"/>
<path d="M3790 2712 c0 -24 69 -124 80 -117 16 10 12 19 -26 79 -38 58 -54 69
-54 38z"/>
<path d="M4647 2665 c-28 -58 -34 -85 -17 -85 10 0 70 111 70 130 0 28 -29 4
-53 -45z"/>
<path d="M4195 2609 c-17 -13 -66 -55 -110 -94 -44 -39 -120 -107 -170 -150
-49 -44 -95 -84 -101 -90 -6 -5 -45 -41 -87 -79 -42 -39 -77 -73 -77 -77 0 -8
166 -139 176 -139 4 0 77 66 163 148 86 81 219 205 294 276 l138 129 -77 44
c-100 56 -113 59 -149 32z"/>
<path d="M3590 2587 c0 -13 92 -87 109 -87 28 0 15 22 -34 59 -57 43 -75 50
-75 28z"/>
<path d="M4778 2517 c-42 -32 -62 -67 -38 -67 15 0 110 79 110 91 0 18 -29 8
-72 -24z"/>
<path d="M4335 2368 c-71 -67 -199 -187 -284 -267 -84 -80 -156 -148 -160
-151 -29 -23 -32 -39 -20 -120 7 -44 16 -79 20 -78 21 8 669 640 669 652 0 20
-61 86 -78 86 -9 -1 -75 -55 -147 -122z"/>
<path d="M3490 2376 c0 -17 121 -49 134 -36 14 14 -5 30 -50 41 -56 12 -84 11
-84 -5z"/>
<path d="M4497 2252 l-68 -69 88 -26 c151 -46 147 -46 185 8 18 26 41 59 51
75 l18 29 -67 21 c-132 40 -130 41 -207 -38z"/>
<path d="M4763 2155 c-47 -71 -48 -76 -32 -159 l12 -57 60 90 60 91 -21 47
c-11 26 -24 49 -29 50 -4 1 -27 -27 -50 -62z"/>
<path d="M4325 2080 c-27 -27 -47 -51 -44 -53 25 -21 291 -103 365 -114 l41
-5 -9 63 c-5 35 -15 69 -21 76 -14 14 -232 83 -262 83 -12 0 -42 -21 -70 -50z"/>
<path d="M3612 2004 l3 -58 95 -83 c52 -45 99 -82 103 -83 7 0 2 79 -9 125 -4
17 -156 142 -186 154 -5 2 -8 -22 -6 -55z"/>
<path d="M885 1020 l0 -340 55 0 55 0 0 340 0 340 -55 0 -55 0 0 -340z"/>
<path d="M1105 1020 l0 -340 55 0 55 0 -3 170 c-2 93 0 170 5 170 11 0 153
-300 153 -322 0 -15 10 -18 65 -18 63 0 65 1 55 20 -8 14 -10 124 -8 340 l3
320 -55 0 -55 0 3 -187 c2 -156 0 -185 -11 -171 -7 9 -44 93 -82 187 l-70 171
-55 0 -55 0 0 -340z"/>
<path d="M1642 1317 l-41 -42 -1 -249 -1 -249 45 -48 46 -49 93 0 93 0 47 48
47 48 0 140 c0 96 -4 144 -12 152 -7 7 -43 12 -91 12 l-78 0 7 -47 c7 -54 11
-60 39 -65 18 -3 20 -11 20 -83 l0 -80 -71 -3 c-67 -3 -72 -1 -78 20 -3 13 -6
107 -6 209 0 134 3 190 13 203 10 14 25 16 77 14 l65 -3 3 -38 c3 -31 8 -39
36 -51 79 -33 76 -35 76 41 0 65 -2 70 -41 116 l-41 47 -102 0 -102 0 -42 -43z"/>
<path d="M2126 1321 l-38 -39 1 -246 c2 -192 -1 -246 -11 -246 -7 0 12 -25 42
-55 l54 -55 92 0 91 0 42 50 42 49 0 247 0 247 -43 44 -42 43 -96 0 -96 0 -38
-39z m202 -83 c14 -14 17 -404 3 -426 -5 -9 -27 -12 -72 -10 l-64 3 -3 210
c-1 115 0 215 2 222 7 17 118 17 134 1z"/>
<path d="M2592 1317 l-42 -43 0 -108 c0 -78 4 -111 14 -121 7 -8 66 -35 130
-61 l117 -46 -3 -67 -3 -66 -72 -3 -72 -3 -3 47 c-3 45 -4 46 -53 65 -27 10
-52 19 -55 19 -3 0 -4 -35 -2 -77 3 -78 4 -78 50 -125 l46 -48 91 0 91 0 47
48 47 48 0 100 c0 83 -3 104 -17 117 -10 8 -67 35 -128 59 l-110 44 0 75 0 74
70 0 70 0 5 -44 c5 -41 8 -45 50 -62 25 -10 50 -18 55 -18 6 -1 8 27 5 74 -5
68 -8 78 -43 120 l-38 45 -102 0 -103 0 -42 -43z"/>
<path d="M3308 1316 l-37 -42 -1 -249 -1 -248 41 -48 42 -49 92 0 92 0 48 49
48 48 1 82 c2 90 6 87 -70 55 -28 -11 -33 -18 -33 -48 0 -62 -5 -66 -80 -66
-53 0 -69 4 -74 16 -12 31 -7 409 6 422 16 16 123 16 136 0 6 -7 12 -26 14
-43 2 -25 10 -32 51 -47 l47 -18 0 73 c0 70 -1 73 -41 115 l-40 42 -102 -1
-102 -1 -37 -42z"/>
<path d="M3782 1317 l-41 -42 -1 -247 -1 -248 43 -50 43 -50 90 0 91 0 42 43
43 43 0 258 1 258 -38 39 -38 39 -96 0 -96 0 -42 -43z m208 -86 c11 -21 14
-369 4 -408 -6 -21 -12 -23 -74 -23 -53 0 -69 4 -74 16 -12 31 -7 409 6 422 7
7 38 12 70 12 46 0 59 -4 68 -19z"/>
<path d="M4210 1020 l0 -340 55 0 55 0 0 138 c0 83 4 142 10 148 8 8 27 8 61
1 27 -5 51 -8 53 -6 2 2 -1 30 -7 62 l-10 57 -42 0 c-57 0 -67 14 -63 97 l3
68 68 3 c48 2 73 -1 89 -13 42 -29 45 -15 16 88 l-11 37 -139 0 -138 0 0 -340z"/>
<path d="M4605 1020 l0 -340 58 0 57 0 0 144 c0 158 0 158 60 145 67 -16 68
-16 57 51 l-10 60 -42 0 c-57 0 -67 14 -63 97 l3 68 62 3 c43 2 72 -2 94 -13
17 -9 32 -15 34 -13 2 2 -4 33 -13 71 l-16 67 -140 0 -141 0 0 -340z"/>
<path d="M5005 1020 l0 -340 137 0 137 0 17 58 c8 31 18 65 20 75 6 21 -5 22
-34 2 -16 -12 -41 -15 -94 -13 l-73 3 -3 75 c-4 89 7 103 66 89 64 -15 65 -14
57 37 -10 69 -14 74 -52 74 -62 0 -73 13 -73 83 0 36 5 68 12 75 17 17 127 15
158 -3 14 -8 28 -14 31 -15 4 0 -1 30 -10 68 l-17 67 -140 3 -139 3 0 -341z"/>
<path d="M5421 1323 c10 -49 7 -602 -5 -625 -8 -17 2 -18 137 -18 l144 0 17
68 c21 87 21 85 -14 67 -21 -11 -52 -15 -98 -13 l-67 3 0 80 0 80 63 -2 c49
-1 62 1 59 11 -3 8 -9 34 -12 60 -7 45 -8 46 -44 46 -62 0 -72 15 -69 95 l3
70 67 3 c50 2 74 -1 93 -14 14 -9 28 -14 32 -11 3 3 -3 36 -12 72 l-18 65
-142 0 -143 0 9 -37z"/>
<path d="M6075 1020 l0 -340 135 0 136 0 54 55 c30 30 48 55 41 55 -10 0 -12
23 -10 100 2 84 0 102 -16 119 -13 15 -15 24 -7 34 6 7 12 62 14 122 l3 110
-41 42 -41 43 -134 0 -134 0 0 -340z m239 213 c3 -10 4 -45 1 -78 -2 -33 -4
-63 -5 -67 0 -13 -105 -9 -118 4 -13 13 -17 140 -5 151 3 4 32 7 64 7 46 0 59
-3 63 -17z m5 -277 c7 -9 11 -41 9 -83 l-3 -68 -70 0 -70 0 -3 68 c-4 86 5 97
73 97 33 0 57 -5 64 -14z"/>
<path d="M6642 1328 c0 -18 -7 -76 -15 -128 -9 -52 -30 -180 -47 -285 -17
-104 -34 -200 -37 -212 -5 -22 -2 -23 54 -23 l58 0 2 58 c1 31 7 75 15 97 l13
40 60 0 c56 0 61 -2 74 -29 7 -16 14 -59 15 -97 l1 -69 64 0 c56 0 62 2 56 18
-16 40 -105 578 -105 633 l0 29 -105 0 -104 0 1 -32z m137 -206 c12 -62 19
-117 16 -122 -9 -15 -95 -13 -96 3 -2 25 3 64 16 117 7 30 16 72 20 94 3 21
10 35 14 30 5 -5 18 -60 30 -122z"/>
<path d="M7055 1020 l0 -340 55 0 55 0 -4 130 c-3 137 3 160 40 160 11 0 19
-1 19 -3 0 -2 18 -52 40 -113 22 -60 40 -124 40 -141 l0 -33 65 0 c61 0 65 1
56 19 -18 32 -91 243 -91 261 0 9 15 31 34 49 l35 34 3 116 3 116 -39 43 -39
42 -136 0 -136 0 0 -340z m236 220 c0 -5 0 -39 0 -75 0 -36 0 -70 0 -75 -1 -7
-25 -10 -63 -8 l-63 3 -3 60 c-5 99 -2 105 68 105 33 0 60 -4 61 -10z"/>
<path d="M3481 354 c-17 -13 -22 -23 -19 -46 4 -24 0 -31 -18 -38 -30 -12 -56
-63 -48 -94 21 -84 144 -76 144 9 0 24 5 34 20 38 21 5 29 47 8 47 -6 0 -8 -3
-5 -7 12 -11 -15 -33 -40 -33 -37 0 -63 -18 -62 -43 l0 -22 9 23 c11 25 45 30
54 6 9 -22 -11 -53 -38 -60 -71 -17 -106 84 -40 114 14 7 34 12 44 12 25 0 25
5 0 30 -16 16 -18 25 -10 40 6 11 20 20 31 20 24 0 37 -29 18 -40 -7 -5 -10
-12 -6 -16 8 -9 37 14 37 30 -1 36 -46 53 -79 30z"/>
<path d="M2798 219 c-2 -56 0 -103 5 -106 4 -2 7 43 7 101 0 58 -2 106 -4 106
-3 0 -6 -45 -8 -101z"/>
<path d="M4678 219 c-2 -56 0 -103 5 -106 4 -2 7 43 7 101 0 58 -2 106 -4 106
-3 0 -6 -45 -8 -101z"/>
<path d="M5624 215 c0 -60 1 -84 3 -52 2 32 2 81 0 110 -2 29 -3 3 -3 -58z"/>
<path d="M810 240 c0 -40 4 -70 10 -70 6 0 10 11 10 25 0 18 5 25 20 25 11 0
20 5 20 10 0 6 -9 10 -20 10 -15 0 -20 7 -20 25 0 22 4 25 35 25 19 0 35 5 35
10 0 6 -20 10 -45 10 l-45 0 0 -70z"/>
<path d="M969 283 c-24 -60 -37 -113 -28 -113 5 0 9 5 9 10 0 14 64 12 78 -2
7 -7 12 -8 12 -2 0 20 -44 134 -52 134 -5 0 -13 -12 -19 -27z m35 -35 c9 -35
8 -38 -18 -38 -23 0 -24 2 -15 30 13 36 24 38 33 8z"/>
<path d="M1093 240 c0 -41 2 -58 4 -37 2 20 2 54 0 75 -2 20 -4 3 -4 -38z"/>
<path d="M1140 238 c1 -55 3 -69 11 -55 12 21 27 22 50 1 16 -14 17 -13 17 8
1 13 4 37 7 54 8 38 -14 64 -56 64 l-29 0 0 -72z m70 31 c14 -26 -3 -49 -36
-49 -21 0 -24 5 -24 35 0 31 3 35 25 35 14 0 29 -8 35 -21z"/>
<path d="M1255 300 c3 -5 13 -10 21 -10 10 0 14 -14 14 -54 0 -30 5 -58 10
-61 6 -4 10 17 10 54 0 46 3 61 14 61 8 0 18 5 21 10 4 6 -13 10 -45 10 -32 0
-49 -4 -45 -10z"/>
<path d="M1380 238 c1 -55 3 -69 11 -55 12 21 38 22 45 2 10 -25 25 -17 18 9
-3 13 -1 27 5 30 17 11 13 51 -7 69 -10 10 -31 17 -45 17 -27 0 -27 -1 -27
-72z m68 21 c3 -30 -18 -52 -42 -43 -10 4 -16 18 -16 41 0 32 2 34 28 31 21
-2 28 -9 30 -29z"/>
<path d="M1531 248 c-24 -71 -26 -87 -9 -70 16 16 75 15 81 0 2 -7 7 -10 10
-7 8 7 -42 139 -53 139 -5 0 -18 -28 -29 -62z m43 6 c11 -29 6 -44 -14 -44
-22 0 -23 3 -14 38 7 26 19 29 28 6z"/>
<path d="M1647 303 c-4 -3 -7 -35 -7 -70 l0 -63 38 0 c48 0 72 24 72 73 0 26
-6 40 -22 51 -23 16 -69 21 -81 9z m83 -32 c15 -29 12 -49 -10 -71 -36 -36
-50 -26 -50 35 0 52 1 55 25 55 14 0 29 -8 35 -19z"/>
<path d="M1780 240 l0 -70 48 2 c43 1 44 2 10 5 -32 4 -38 8 -38 28 0 17 7 25
23 28 l22 4 -22 2 c-17 1 -23 7 -23 26 0 21 5 25 29 25 17 0 33 5 36 10 4 6
-12 10 -39 10 l-46 0 0 -70z"/>
<path d="M1980 288 c-42 -45 -12 -118 50 -118 17 0 30 5 30 10 0 6 -10 8 -24
4 -30 -7 -56 18 -56 56 0 38 33 62 66 50 13 -5 24 -6 24 -1 0 5 -7 12 -16 15
-29 11 -53 6 -74 -16z"/>
<path d="M2126 294 c-24 -23 -29 -59 -14 -91 10 -22 21 -29 50 -31 30 -3 40 1
54 22 43 67 -36 155 -90 100z m72 -16 c28 -28 4 -98 -33 -98 -22 0 -45 30 -45
59 0 32 16 51 45 51 12 0 26 -5 33 -12z"/>
<path d="M2261 238 c1 -40 4 -61 6 -45 3 18 10 27 23 27 28 0 34 18 8 22 -15
2 -24 11 -26 26 -3 19 1 22 32 22 19 0 38 5 41 10 4 6 -12 10 -39 10 l-46 0 1
-72z"/>
<path d="M2381 238 c1 -40 4 -61 6 -45 4 26 12 31 41 28 6 -1 12 3 12 9 0 5
-11 10 -25 10 -20 0 -25 5 -25 25 0 22 4 25 34 25 19 0 38 5 41 10 4 6 -12 10
-39 10 l-46 0 1 -72z"/>
<path d="M2490 240 l0 -70 48 2 c43 1 44 2 10 5 -32 4 -38 8 -38 28 0 17 7 25
23 28 l22 4 -22 2 c-17 1 -23 7 -23 26 0 21 5 25 29 25 17 0 33 5 36 10 4 6
-12 10 -39 10 l-46 0 0 -70z"/>
<path d="M2610 240 l0 -70 43 1 42 2 -35 6 c-43 7 -51 43 -10 50 l25 4 -25 6
c-39 10 -34 45 8 49 46 5 40 22 -8 22 l-40 0 0 -70z"/>
<path d="M2910 240 c0 -40 4 -70 10 -70 6 0 10 7 10 15 0 9 9 15 24 15 25 0
56 32 56 57 0 23 -39 53 -70 53 l-30 0 0 -70z m78 17 c3 -21 -2 -29 -20 -36
-31 -12 -38 -6 -38 35 0 33 2 35 28 32 21 -2 28 -9 30 -31z"/>
<path d="M3053 240 c0 -41 2 -58 4 -37 2 20 2 54 0 75 -2 20 -4 3 -4 -38z"/>
<path d="M3100 240 l0 -70 43 1 c40 2 41 2 9 8 -18 3 -33 9 -32 14 0 4 0 13 0
21 0 8 10 17 23 19 l22 4 -22 2 c-17 1 -23 7 -23 26 0 21 5 25 30 25 17 0 30
5 30 10 0 6 -18 10 -40 10 l-40 0 0 -70z"/>
<path d="M3227 303 c-18 -17 -6 -53 23 -68 34 -17 42 -55 12 -55 -10 0 -23 5
-30 12 -9 9 -12 8 -12 -5 0 -21 45 -33 65 -17 25 21 17 49 -20 71 -39 23 -42
31 -20 49 12 10 18 10 30 0 17 -14 31 -8 20 9 -7 12 -58 15 -68 4z"/>
<path d="M3680 238 c1 -55 3 -69 11 -55 5 9 18 17 28 17 23 0 51 31 51 57 0
27 -31 53 -63 53 -27 0 -27 -1 -27 -72z m68 23 c3 -15 -3 -30 -13 -37 -26 -20
-45 -6 -45 33 0 32 2 34 28 31 20 -2 28 -9 30 -27z"/>
<path d="M3839 283 c-29 -75 -39 -107 -33 -112 4 -3 9 0 11 7 6 15 65 16 81 0
16 -16 15 -11 -8 66 -12 36 -25 66 -31 66 -5 0 -14 -12 -20 -27z m35 -35 c9
-35 8 -38 -19 -38 -28 0 -28 0 -15 34 12 32 26 33 34 4z"/>
<path d="M3954 286 c-7 -30 1 -44 32 -56 29 -11 33 -50 6 -50 -10 0 -23 5 -30
12 -8 8 -12 8 -12 1 0 -23 29 -36 55 -25 33 15 32 47 -2 69 -39 24 -45 36 -28
52 12 12 17 12 30 1 8 -7 19 -10 22 -6 10 10 -17 26 -44 26 -16 0 -25 -8 -29
-24z"/>
<path d="M4065 300 c3 -5 13 -10 21 -10 11 0 14 -15 14 -61 0 -37 4 -58 10
-54 6 3 10 31 10 61 0 41 4 54 15 54 8 0 15 5 15 10 0 6 -21 10 -46 10 -27 0
-43 -4 -39 -10z"/>
<path d="M4180 240 c0 -65 10 -90 24 -55 7 19 35 19 42 0 12 -29 19 -14 22 45
3 65 -9 80 -62 80 -25 0 -26 -2 -26 -70z m76 26 c8 -32 -2 -46 -32 -46 -21 0
-24 5 -24 35 0 31 3 35 25 35 18 0 26 -7 31 -24z"/>
<path d="M4310 240 c0 -40 4 -70 10 -70 6 0 10 30 10 70 0 40 -4 70 -10 70 -6
0 -10 -30 -10 -70z"/>
<path d="M4370 240 l0 -70 43 1 42 2 -35 6 c-43 7 -51 43 -10 50 l25 4 -25 6
c-16 4 -26 15 -28 29 -3 19 1 22 32 22 20 0 36 5 36 10 0 6 -18 10 -40 10
l-40 0 0 -70z"/>
<path d="M4494 296 c-10 -26 1 -51 29 -64 32 -15 38 -52 8 -52 -11 0 -23 5
-26 10 -8 13 -25 13 -25 0 0 -19 46 -33 69 -21 32 18 26 49 -14 72 -39 23 -42
31 -20 49 12 10 18 10 30 0 9 -7 19 -10 22 -6 4 4 1 11 -7 16 -23 15 -60 12
-66 -4z"/>
<path d="M4790 240 c0 -40 4 -70 10 -70 6 0 10 6 10 13 0 7 15 17 33 22 26 8
33 16 35 41 4 39 -19 64 -59 64 l-29 0 0 -70z m68 38 c16 -16 15 -33 -3 -52
-24 -23 -45 -9 -45 30 0 26 4 34 18 34 10 0 23 -5 30 -12z"/>
<path d="M4910 240 l0 -70 43 2 c36 1 38 2 10 5 l-33 4 0 65 c0 36 -4 64 -10
64 -6 0 -10 -30 -10 -70z"/>
<path d="M5065 298 c-29 -80 -42 -128 -34 -128 5 0 9 5 9 10 0 14 64 12 78 -2
17 -17 15 -1 -9 70 -20 60 -35 76 -44 50z m29 -50 c9 -35 8 -38 -19 -38 -29 0
-29 0 -13 35 14 31 24 32 32 3z"/>
<path d="M5166 303 c-10 -11 -7 -133 4 -133 6 0 10 20 10 45 0 25 5 45 10 45
6 0 10 -3 10 -7 0 -5 16 -26 35 -48 l34 -40 -1 75 c-1 53 -3 61 -5 28 -2 -27
-8 -48 -13 -48 -5 0 -24 20 -43 45 -19 24 -37 42 -41 38z"/>
<path d="M5305 300 c3 -5 13 -10 21 -10 11 0 14 -14 14 -60 0 -33 4 -60 10
-60 6 0 10 27 10 60 0 47 3 60 15 60 8 0 15 5 15 10 0 6 -21 10 -46 10 -27 0
-43 -4 -39 -10z"/>
<path d="M5442 298 c-21 -21 -13 -47 18 -63 18 -9 30 -23 30 -35 0 -23 -29
-27 -49 -7 -11 10 -13 9 -9 -2 7 -25 36 -37 56 -25 31 20 26 49 -13 79 -33 24
-35 29 -22 42 12 12 19 13 37 3 18 -10 21 -9 18 2 -6 17 -50 22 -66 6z"/>
<path d="M5730 240 c0 -40 4 -70 10 -70 6 0 10 7 10 15 0 9 9 15 24 15 25 0
56 32 56 57 0 23 -39 53 -70 53 l-30 0 0 -70z m76 23 c5 -19 2 -30 -12 -40
-27 -20 -39 -11 -42 30 -3 34 -1 37 22 37 19 0 27 -7 32 -27z"/>
<path d="M5852 240 c3 -68 10 -86 22 -55 7 19 35 19 42 0 9 -22 26 -18 19 4
-3 10 0 30 6 44 18 40 -10 77 -57 77 l-35 0 3 -70z m73 15 c0 -25 -4 -30 -27
-33 -26 -3 -28 -1 -28 33 0 34 2 36 28 33 23 -3 27 -8 27 -33z"/>
<path d="M5980 240 l0 -70 43 1 42 2 -35 6 c-42 7 -55 39 -19 48 l23 6 -22 8
c-13 5 -22 17 -22 29 0 16 7 20 29 20 17 0 33 5 36 10 4 6 -10 10 -34 10 l-41
0 0 -70z"/>
<path d="M6162 243 l-2 -73 43 1 42 2 -35 6 -35 6 -6 65 -6 65 -1 -72z"/>
<path d="M6290 288 c-24 -26 -26 -65 -4 -96 24 -34 84 -28 102 11 35 74 -44
143 -98 85z m78 -10 c18 -18 14 -63 -7 -82 -42 -39 -98 21 -66 70 17 26 53 32
73 12z"/>
<path d="M6430 306 c0 -23 45 -136 54 -136 13 0 61 128 52 137 -3 3 -10 -5
-15 -18 -5 -13 -15 -40 -23 -59 l-14 -35 -19 50 c-18 48 -35 78 -35 61z"/>
<path d="M6570 240 l0 -70 48 2 c43 1 44 2 10 5 -33 4 -38 8 -38 29 0 18 5 24
23 25 22 0 22 0 1 9 -22 9 -37 34 -27 44 4 3 19 6 34 6 15 0 31 5 34 10 4 6
-12 10 -39 10 l-46 0 0 -70z"/>
<path d="M6690 240 l0 -70 30 0 c38 0 70 32 70 70 0 38 -32 70 -70 70 l-30 0
0 -70z m78 25 c14 -31 1 -71 -27 -80 -32 -10 -41 2 -41 56 0 47 1 49 28 49 21
0 32 -7 40 -25z"/>
<path d="M6890 240 l0 -70 35 0 c38 0 67 32 46 53 -6 6 -11 25 -11 43 0 32
-13 44 -51 44 -17 0 -19 -8 -19 -70z m56 38 c8 -12 -24 -40 -37 -32 -5 3 -9
14 -9 25 0 21 34 27 46 7z m9 -73 c0 -22 -31 -33 -47 -17 -17 17 -1 44 24 40
15 -2 23 -10 23 -23z"/>
<path d="M7026 291 c-39 -43 -11 -121 44 -121 53 0 79 68 44 118 -19 28 -64
29 -88 3z m84 -22 c16 -30 4 -68 -26 -81 -23 -11 -29 -9 -45 11 -22 26 -24 44
-9 72 15 27 66 26 80 -2z"/>
<path d="M7180 283 c-16 -20 -20 -36 -16 -57 9 -44 25 -57 65 -54 42 4 68 39
58 80 -16 61 -71 77 -107 31z m78 -5 c20 -20 15 -76 -7 -88 -11 -5 -24 -10
-30 -10 -19 0 -41 32 -41 59 0 32 16 51 45 51 12 0 26 -5 33 -12z"/>
<path d="M7323 240 c0 -41 2 -63 4 -47 5 34 26 35 47 2 9 -14 21 -25 27 -25 6
0 -1 16 -15 35 -28 36 -27 44 7 83 11 12 16 22 9 22 -6 0 -19 -11 -30 -25 -26
-32 -40 -32 -45 3 -2 15 -4 -7 -4 -48z"/>
<path d="M7457 304 c-19 -19 -5 -53 28 -73 19 -11 35 -25 35 -31 0 -18 -31
-24 -52 -11 -16 10 -19 10 -16 0 8 -23 36 -35 56 -23 29 18 27 51 -5 71 -38
24 -45 36 -29 51 11 11 18 11 36 2 18 -10 21 -9 18 2 -5 14 -59 24 -71 12z"/>
<path d="M6090 230 c0 -5 9 -10 20 -10 11 0 20 5 20 10 0 6 -9 10 -20 10 -11
0 -20 -4 -20 -10z"/>
</g>
</svg>
