<?xml version="1.0" standalone="no"?>
<!DOCTYPE svg PUBLIC "-//W3C//DTD SVG 20010904//EN"
 "http://www.w3.org/TR/2001/REC-SVG-20010904/DTD/svg10.dtd">
<svg version="1.0" xmlns="http://www.w3.org/2000/svg"
 width="540.000000pt" height="89.000000pt" viewBox="0 0 540.000000 89.000000"
 preserveAspectRatio="xMidYMid meet">

<g transform="translate(0.000000,89.000000) scale(0.100000,-0.100000)"
fill="#000000" stroke="none">
<path d="M320 658 c0 -2 -1 -110 -3 -241 l-2 -237 43 0 42 0 0 240 0 240 -40
0 c-22 0 -40 -1 -40 -2z"/>
<path d="M480 658 c0 -2 -1 -110 -3 -241 l-2 -237 43 0 42 0 0 118 1 117 54
-105 c30 -58 55 -111 55 -117 0 -9 15 -13 44 -13 l44 0 1 241 2 240 -42 -3
-41 -3 1 -128 c1 -71 -2 -127 -6 -124 -4 3 -33 62 -63 131 l-55 126 -37 0
c-21 0 -38 -1 -38 -2z"/>
<path d="M872 627 l-32 -33 0 -175 0 -175 33 -32 c31 -30 38 -32 103 -32 66 0
72 2 102 33 l33 34 -3 104 -3 104 -64 3 -64 3 7 -32 c3 -17 6 -35 6 -40 0 -5
9 -9 20 -9 19 0 21 -5 18 -57 l-3 -58 -50 0 -50 0 0 155 0 155 50 0 c47 0 50
-2 53 -27 2 -18 12 -29 30 -36 15 -6 34 -13 43 -17 14 -5 16 1 11 47 -3 42
-11 60 -35 86 -29 30 -35 32 -102 32 -67 0 -73 -2 -103 -33z"/>
<path d="M1226 626 l-37 -33 1 -172 2 -171 36 -35 c34 -32 41 -35 103 -35 61
0 67 2 97 33 l32 33 0 175 0 175 -33 32 c-30 29 -38 32 -99 32 -60 0 -68 -3
-102 -34z m149 -206 l0 -155 -47 -3 -48 -3 0 161 0 161 48 -3 47 -3 0 -155z"/>
<path d="M1572 627 c-30 -31 -32 -37 -32 -109 0 -50 4 -79 13 -86 7 -6 49 -24
92 -40 l80 -30 0 -48 0 -49 -50 0 c-49 0 -50 1 -53 31 -3 26 -10 34 -43 47
l-39 15 0 -57 c0 -51 3 -60 33 -89 31 -30 38 -32 103 -32 66 0 72 2 102 33 32
33 33 36 30 112 l-3 78 -90 36 -90 36 0 50 0 50 50 0 c49 0 50 -1 53 -32 2
-23 9 -33 27 -37 13 -3 30 -9 39 -12 13 -5 16 3 16 49 0 50 -3 57 -35 86 -32
28 -42 31 -103 31 -64 0 -70 -2 -100 -33z"/>
<path d="M2102 627 l-32 -33 0 -175 0 -175 33 -32 c30 -29 38 -32 98 -32 61 0
67 2 102 36 34 33 37 41 37 90 0 30 -2 54 -5 54 -3 0 -21 -6 -40 -14 -27 -12
-34 -21 -37 -48 -3 -33 -4 -33 -53 -33 l-50 0 0 155 0 155 29 3 c48 6 76 -6
76 -32 0 -18 9 -27 40 -39 l40 -15 0 47 c0 41 -5 54 -34 85 -33 35 -37 36
-103 36 -65 0 -71 -2 -101 -33z"/>
<path d="M2451 632 l-32 -28 0 -182 0 -183 32 -30 c28 -26 38 -29 98 -29 63 0
69 2 99 33 l32 33 0 175 0 175 -33 32 c-30 29 -38 32 -99 32 -57 0 -69 -3 -97
-28z m144 -212 l0 -155 -47 -3 -48 -3 0 154 c0 84 3 157 7 161 4 4 25 6 48 4
l40 -3 0 -155z"/>
<path d="M2765 650 c-3 -5 -5 -113 -4 -240 l1 -231 41 3 41 3 0 95 1 95 48 0
c48 0 48 0 43 29 -3 16 -6 35 -6 42 0 9 -12 14 -34 14 -44 0 -58 19 -54 72 l3
43 55 0 c30 -1 63 -5 74 -9 16 -8 18 -6 11 25 -15 68 -16 69 -120 69 -51 0
-96 -4 -100 -10z"/>
<path d="M3060 658 c0 -2 -1 -110 -3 -241 l-2 -237 43 0 42 0 0 99 c0 109 2
113 58 100 35 -8 37 -4 26 49 -5 27 -11 31 -43 34 l-36 3 0 55 0 55 42 3 c25
2 55 -4 73 -13 30 -16 32 -16 26 2 -3 10 -8 32 -12 48 -4 17 -12 33 -18 37
-10 7 -196 12 -196 6z"/>
<path d="M3350 420 l0 -240 100 0 c111 0 107 -3 125 79 l7 35 -26 -18 c-18
-12 -42 -16 -74 -14 l-47 3 0 60 0 59 47 -3 c36 -2 47 1 44 11 -2 7 -7 25 -10
40 -5 22 -12 27 -44 30 l-37 3 0 55 0 55 50 -1 c28 -1 60 -4 72 -8 21 -8 21
-7 9 41 l-12 48 -102 3 -102 3 0 -241z"/>
<path d="M3657 653 c-4 -3 -7 -111 -7 -240 l0 -233 104 0 103 0 13 45 c14 52
10 61 -18 46 -12 -6 -41 -11 -66 -11 l-46 0 0 58 c0 32 2 61 5 64 3 3 24 2 46
-2 l41 -8 -6 30 c-3 17 -6 36 -6 44 0 8 -15 14 -37 16 l-38 3 0 55 0 55 50 0
c28 -1 59 -5 69 -10 17 -8 18 -5 12 31 -5 21 -12 45 -18 52 -11 13 -189 18
-201 5z"/>
<path d="M4140 436 c0 -123 -3 -231 -6 -240 -5 -14 7 -16 98 -16 l104 0 33 34
c31 32 33 38 33 108 1 41 -2 80 -7 87 -4 8 -7 55 -6 106 2 92 2 92 -29 119
-29 24 -39 26 -126 26 l-94 0 0 -224z m170 84 l0 -60 -45 0 -45 0 0 53 c0 30
3 57 7 60 3 4 24 7 45 7 l38 0 0 -60z m8 -197 l-3 -58 -45 0 -45 0 -3 58 -3
57 51 0 51 0 -3 -57z"/>
<path d="M4550 631 c0 -17 -16 -123 -35 -235 -19 -113 -35 -207 -35 -210 0 -4
20 -6 44 -6 l43 0 1 43 c1 24 6 56 11 70 9 23 16 27 50 27 49 0 60 -13 65 -81
l4 -54 45 -3 c40 -3 45 -1 40 16 -2 11 -21 118 -42 238 l-37 219 -77 3 -77 3
0 -30z m108 -228 c-14 -18 -47 -16 -54 2 -6 15 13 141 24 160 3 5 13 -27 23
-70 12 -55 14 -84 7 -92z"/>
<path d="M4860 420 l0 -240 40 0 39 0 3 97 c2 80 6 98 19 101 12 2 24 -20 48
-81 18 -45 31 -90 29 -98 -2 -10 9 -15 46 -17 37 -2 47 0 44 10 -3 7 -20 52
-38 101 l-34 87 28 29 c25 26 28 35 28 111 1 81 0 84 -31 112 -30 27 -36 28
-126 28 l-95 0 0 -240z m172 110 c1 -28 2 -55 0 -60 -2 -6 -24 -10 -48 -10
l-44 0 0 53 c0 30 3 57 7 60 3 4 23 7 44 7 l37 0 4 -50z"/>
</g>
</svg>
